HIERARCHY
ROOT root
{
	OFFSET	0	13.1	24.9
	CHANNELS 6  Xposition Yposition Zposition Xrotation Yrotation Zrotation
	JOINT spine_1
	{
		OFFSET	0	9.99999	0
		CHANNELS 3  Xrotation Yrotation Zrotation
		JOINT spine_2
		{
			OFFSET	0	112	-10
			CHANNELS 3  Xrotation Yrotation Zrotation
			JOINT spine_3
			{
				OFFSET	0	206.5	19.3
				CHANNELS 3  Xrotation Yrotation Zrotation
				JOINT spine_4
				{
					OFFSET	0	110.4	14.6
					CHANNELS 3  Xrotation Yrotation Zrotation
					JOINT neck_1
					{
						OFFSET	0	71.8	-50.3
						CHANNELS 3  Xrotation Yrotation Zrotation
						JOINT neck_2
						{
							OFFSET	0	86.2	-25.8
							CHANNELS 3  Xrotation Yrotation Zrotation
							JOINT head_ee
							{
								OFFSET	0	179.8	-8.7
								CHANNELS 3  Xrotation Yrotation Zrotation
								End Site
								{
									OFFSET	1	0	0
								}
							}
						}
					}
					JOINT left_clavicle
					{
						OFFSET	-43.2	22.4	-70.8
						CHANNELS 3  Xrotation Yrotation Zrotation
						JOINT left_shoulder
						{
							OFFSET	-93.9	-5.79999	48.7
							CHANNELS 3  Xrotation Yrotation Zrotation
							JOINT left_elbow
							{
								OFFSET	-291.4	-30.8	15.2
								CHANNELS 3  Xrotation Yrotation Zrotation
								JOINT left_lowarm_twist
								{
									OFFSET	-110.7	-3.89999	13.6
									CHANNELS 3  Xrotation Yrotation Zrotation
									JOINT left_hand
									{
										OFFSET	-110.7	-3.89999	13.6
										CHANNELS 3  Xrotation Yrotation Zrotation
										JOINT left_ee
										{
											OFFSET	-80.8	-5.10001	12.1
											CHANNELS 3  Xrotation Yrotation Zrotation
											End Site
											{
												OFFSET	1	0	0
											}
										}
									}
								}
							}
						}
					}
					JOINT right_clavicle
					{
						OFFSET	43.2	22.4	-70.8
						CHANNELS 3  Xrotation Yrotation Zrotation
						JOINT right_shoulder
						{
							OFFSET	93.9	-5.79999	48.7
							CHANNELS 3  Xrotation Yrotation Zrotation
							JOINT right_elbow
							{
								OFFSET	291.4	-30.8	15.2
								CHANNELS 3  Xrotation Yrotation Zrotation
								JOINT right_lowarm_twist
								{
									OFFSET	110.7	-3.89999	13.6
									CHANNELS 3  Xrotation Yrotation Zrotation
									JOINT right_hand
									{
										OFFSET	110.7	-3.89999	13.6
										CHANNELS 3  Xrotation Yrotation Zrotation
										JOINT right_ee
										{
											OFFSET	80.8	-5.10001	12.1
											CHANNELS 3  Xrotation Yrotation Zrotation
											End Site
											{
												OFFSET	1	0	0
											}
										}
									}
								}
							}
						}
					}
				}
			}
		}
	}
	JOINT left_hip
	{
		OFFSET	-82.8	-127.5	0.300001
		CHANNELS 3  Xrotation Yrotation Zrotation
		JOINT left_knee
		{
			OFFSET	-28.2	-396.7	2.2
			CHANNELS 3  Xrotation Yrotation Zrotation
			JOINT left_ankle
			{
				OFFSET	-11.7	-411.3	35.4
				CHANNELS 3  Xrotation Yrotation Zrotation
				JOINT left_toes
				{
					OFFSET	0	-60	-88.6
					CHANNELS 3  Xrotation Yrotation Zrotation
					JOINT left_foot_ee
					{
						OFFSET	-22.5	-16.5	-42.2
						CHANNELS 3  Xrotation Yrotation Zrotation
						End Site
						{
							OFFSET	1	0	0
						}
					}
				}
			}
		}
	}
	JOINT right_hip
	{
		OFFSET	82.8	-127.5	0.300001
		CHANNELS 3  Xrotation Yrotation Zrotation
		JOINT right_knee
		{
			OFFSET	28.2	-396.7	2.2
			CHANNELS 3  Xrotation Yrotation Zrotation
			JOINT right_ankle
			{
				OFFSET	11.7	-411.3	35.4
				CHANNELS 3  Xrotation Yrotation Zrotation
				JOINT right_toes
				{
					OFFSET	0	-60	-88.6
					CHANNELS 3  Xrotation Yrotation Zrotation
					JOINT right_foot_ee
					{
						OFFSET	22.5	-16.5	-42.2
						CHANNELS 3  Xrotation Yrotation Zrotation
						End Site
						{
							OFFSET	1	0	0
						}
					}
				}
			}
		}
	}
}
MOTION
Frames: 16
Frame Time: 0.02
485.473 767.658 -1300.89 -176.829 -69.4751 -179.105 0.474991 0.3313 -0.674531 0.475167 0.373549 -0.652084 0.47086 0.497669 -0.563098 0.470644 0.402495 -0.634627 -12.8586 9.68577 8.43931 -12.7641 13.1172 10.8937 -0.0 0.0 -0.0 6.11944 7.94527 11.8518 -11.3865 -6.75968 66.5564 0.818168 -22.0624 0.159501 0.937461 0.0320862 -0.11543 -0.614499 8.12777 -0.597484 -0.0 0.0 -0.0 5.66477 -3.19889 -11.0129 -5.24169 22.9751 -62.0275 0.460365 12.8469 -0.0518293 7.50261 -0.203289 0.936129 -0.36393 -3.66641 0.865159 0.0 0.0 0.0 18.7262 64.958 -17.2047 -2.56379 0.0970381 0.381459 -3.69113 -28.2235 0.679846 29.4559 -0.0 -0.0 -0.0 0.0 -0.0 -2.21789 -6.01356 5.81042 5.49106 0.264745 0.800505 10.3462 -9.02694 1.46914 -7.84259 0.0 0.0 0.0 0.0 0.0 
488.95 769.646 -1298.41 -176.703 -69.9452 -178.959 0.624329 0.441577 -0.751984 0.624511 0.488532 -0.722363 0.618249 0.622927 -0.610275 0.618105 0.51873 -0.700993 -13.2938 8.85834 7.89809 -13.2123 11.9597 10.182 -0.0 0.0 -0.0 6.02232 9.19225 11.6571 -11.7553 -6.67024 66.8333 0.784735 -21.2427 0.147164 0.704782 0.0242987 -0.0867318 -0.734519 9.01065 -0.991812 -0.0 0.0 -0.0 5.53384 -2.93673 -10.7602 -4.44462 23.0826 -61.6359 0.427945 11.9692 -0.0448629 7.77303 -0.208315 0.970308 -0.421817 -4.13153 1.04868 0.0 0.0 0.0 19.0495 64.8225 -17.6958 -2.68179 0.101092 0.399114 -3.86351 -28.2781 0.712397 29.2459 -0.0 -0.0 -0.0 0.0 -0.0 -2.91988 -6.01269 5.61978 4.93371 0.23438 0.720429 10.5577 -8.24634 1.49779 -7.7229 0.0 0.0 0.0 0.0 0.0 
494.332 768.71 -1300.97 -177.314 -70.8468 -179.395 0.732724 0.530949 -0.829149 0.732918 0.582632 -0.793686 0.7247 0.728153 -0.662716 0.724614 0.614354 -0.769394 -13.6446 8.20429 7.60564 -13.5645 10.9537 9.74124 -0.0 0.0 -0.0 5.86601 10.831 11.3511 -12.8435 -6.37999 67.0276 0.756745 -20.5494 0.137181 0.513701 0.0178165 -0.0631879 -0.844631 9.96267 -1.28565 -0.0 0.0 -0.0 5.59168 -2.40457 -10.8629 -3.85996 23.2365 -61.673 0.411845 11.5312 -0.041584 7.95868 -0.211672 0.993784 -0.472118 -4.47906 1.23139 0.0 0.0 0.0 19.4259 64.6569 -17.9647 -3.2319 0.119511 0.481531 -3.8645 -28.4023 0.713743 29.0886 -0.0 -0.0 -0.0 0.0 -0.0 -3.4107 -6.03529 5.90449 4.48981 0.210756 0.656448 10.5962 -7.67042 1.50303 -7.73304 0.0 0.0 0.0 0.0 0.0 
497.03 767.377 -1299.38 -178.422 -72.7434 179.565 0.652886 0.433505 -0.926119 0.653229 0.491556 -0.89666 0.645441 0.660335 -0.780763 0.64498 0.528746 -0.875246 -13.7941 7.28147 7.83157 -13.679 9.0762 9.68202 -0.0 0.0 -0.0 5.7228 11.63 11.0871 -12.7928 -5.51763 67.2001 0.735864 -20.0281 0.12994 1.16345 0.0395377 -0.143332 -1.00287 11.605 -1.57426 -0.0 0.0 -0.0 3.66584 0.510192 -7.04026 -3.22736 24.2453 -65.235 0.564504 15.6232 -0.0774446 8.38724 -0.21913 1.04802 -0.254518 -4.21824 -0.0901826 0.0 0.0 0.0 18.8851 62.7645 -16.7081 -4.9966 0.173236 0.74702 -0.761914 -28.3666 0.13952 28.6396 -0.0 -0.0 -0.0 0.0 -0.0 -4.11401 -5.8473 5.7942 3.1691 0.143417 0.465055 10.6083 -7.21772 1.50476 -7.77527 0.0 0.0 0.0 0.0 0.0 
500.556 764.367 -1302.06 -178.286 -73.0203 179.797 0.545131 0.471116 -0.886662 0.545414 0.52658 -0.85489 0.537441 0.687715 -0.731557 0.537138 0.563553 -0.830983 -13.8124 7.13602 7.13782 -13.7289 9.22858 8.98412 -0.0 0.0 -0.0 5.59084 12.1347 10.8512 -13.0545 -5.30439 67.233 0.724653 -19.7467 0.126127 1.13076 0.0384668 -0.139294 -0.987027 11.4987 -1.52061 -0.0 0.0 -0.0 3.76206 0.828637 -7.20979 -2.97642 24.1496 -64.5611 0.566556 15.6772 -0.0779981 8.43147 -0.219877 1.05362 -0.273174 -4.28253 0.00550573 0.0 0.0 0.0 18.2694 62.4324 -15.9974 -5.14379 0.177347 0.769234 -0.8151 -28.4274 0.1494 28.6882 -0.0 -0.0 -0.0 0.0 -0.0 -4.29677 -5.86199 5.81026 3.10424 0.140224 0.455617 10.6825 -6.43972 1.51526 -7.75137 0.0 0.0 0.0 0.0 0.0 
498.87 764.755 -1323.55 84.2294 -73.4841 86.3098 -7.40158 -0.587816 -3.3826 -7.39529 -0.37151 -3.4131 -7.3572 0.789198 -3.34141 -7.37269 0.251906 -3.424 3.2797 -6.20446 3.21143 3.54065 -13.5335 3.20132 -0.0 0.0 -0.0 7.03922 -3.24914 13.6507 3.18589 -25.3626 74.2611 0.51018 -14.1835 0.063472 4.75658 0.143138 -0.590537 -2.05224 22.5217 -2.89846 -0.0 0.0 -0.0 -3.7025 2.39778 7.6357 10.587 15.6775 -70.13 0.969863 25.6611 -0.220897 -18.7503 1.0235 -2.1574 -2.02385 -3.45727 12.0099 0.0 0.0 0.0 -8.2746 -9.47273 -3.99049 -16.1651 0.321589 2.45164 14.6527 -3.27562 -2.08409 12.0337 -0.0 -0.0 -0.0 0.0 -0.0 -19.5159 -53.6008 5.74463 1.61857 0.0700277 0.238491 -3.73412 13.7905 -0.595641 -33.5077 0.0 0.0 0.0 0.0 0.0 
504.1 764.071 -1321.72 84.066 -73.5795 85.6394 -7.33225 -0.61822 -3.38382 -7.32597 -0.401775 -3.41625 -7.286 0.757498 -3.35542 -7.30164 0.218394 -3.43283 3.73236 -4.16192 3.3752 3.90732 -10.1131 3.54989 -0.0 0.0 -0.0 6.71893 -3.68717 12.9921 4.1263 -24.3402 74.9887 0.416253 -11.6513 0.0424699 4.5284 0.137396 -0.561956 -1.77134 25.5691 0.164352 -0.0 0.0 -0.0 -3.33447 3.87357 7.15246 9.46368 14.1912 -69.9734 0.997345 26.2914 -0.232934 -19.424 1.07309 -2.228 -2.41577 -3.26932 14.7672 0.0 0.0 0.0 -8.79973 -11.0446 -3.16628 -16.3481 0.321245 2.47972 17.5723 -5.8688 -2.49093 11.8655 -0.0 -0.0 -0.0 0.0 -0.0 -20.6491 -53.9851 5.19395 3.48011 0.158876 0.510261 -5.54097 12.878 -0.881547 -35.7019 0.0 0.0 0.0 0.0 0.0 
509.895 762.554 -1322.38 81.9554 -73.6172 83.3901 -7.39933 -0.721087 -3.28507 -7.39347 -0.510706 -3.32424 -7.34803 0.627525 -3.3042 -7.36325 0.098121 -3.36177 2.65571 -1.56402 4.92405 2.79867 -6.91444 5.36086 -0.0 0.0 -0.0 6.67569 -3.99768 12.8979 4.09241 -23.8636 74.9623 0.355717 -9.9938 0.0311019 2.84947 0.0916457 -0.352377 -1.88721 24.1745 -1.15032 -0.0 0.0 -0.0 -3.03222 3.55728 6.48754 9.63157 11.7529 -70.0764 1.11221 28.852 -0.286113 -17.6885 0.947042 -2.04497 -2.93605 -6.15562 16.8694 0.0 0.0 0.0 -8.94303 -7.74186 -3.07252 -15.3244 0.322017 2.32267 14.3738 -2.81498 -2.04376 11.3455 -0.0 -0.0 -0.0 0.0 -0.0 -21.198 -53.1122 5.57312 3.96315 0.183373 0.580308 -5.86316 16.0364 -0.955583 -34.1408 0.0 0.0 0.0 0.0 0.0 
519.161 757.877 -1324.15 84.1223 -73.2274 84.8953 -7.35817 -0.47504 -3.14034 -7.35273 -0.274352 -3.16417 -7.32424 0.795919 -3.07478 -7.3373 0.300582 -3.16179 6.14847 -0.340145 7.37576 6.42283 -7.11074 8.56876 -0.0 0.0 -0.0 6.56962 -3.9362 12.6831 2.91911 -23.8787 74.9455 0.347837 -9.77673 0.0297491 1.74439 0.0581874 -0.21519 -1.83128 25.8775 -0.0245443 -0.0 0.0 -0.0 -2.95877 2.81035 6.21488 6.95095 13.3427 -69.3047 1.30544 32.8883 -0.385321 -20.4538 1.1505 -2.33479 -2.79395 -1.77281 18.1299 0.0 0.0 0.0 -9.35347 -7.4967 -2.35855 -16.7949 0.320028 2.54826 18.4577 -3.59941 -2.58379 12.3199 -0.0 -0.0 -0.0 0.0 -0.0 -22.1485 -55.471 5.9584 7.39039 0.374061 1.07114 -10.5519 17.1584 -1.7495 -38.7715 0.0 0.0 0.0 0.0 0.0 
523.775 758.214 -1326.43 82.2384 -72.6882 82.6408 -7.45159 -0.699747 -2.90632 -7.44704 -0.513475 -2.94491 -7.40794 0.501301 -2.947 -7.42006 0.0298015 -2.98915 6.35658 -0.579273 7.0443 6.6206 -7.23345 8.19616 -0.0 0.0 -0.0 6.39968 -1.51622 12.3858 2.34031 -23.7503 74.7682 0.380882 -10.685 0.0356186 2.79579 0.0900816 -0.345699 -1.29695 26.9986 3.44305 -0.0 0.0 -0.0 -2.69477 2.4939 5.63457 6.78937 11.8213 -68.6147 1.31065 32.9923 -0.388151 -20.5618 1.15873 -2.34591 -2.84767 -3.23608 17.7651 0.0 0.0 0.0 -9.63867 -9.29563 -1.66947 -17.724 0.315786 2.69075 17.721 -3.34926 -2.48713 13.3201 -0.0 -0.0 -0.0 0.0 -0.0 -22.4157 -54.9484 6.27313 6.67168 0.331637 0.96915 -12.0938 17.5516 -2.01595 -38.9532 0.0 0.0 0.0 0.0 0.0 
524.508 761.296 -1328.46 85.1083 -73.0332 85.2768 -7.33134 -0.343182 -2.78546 -7.32704 -0.165311 -2.80164 -7.30884 0.777133 -2.69685 -7.31883 0.341638 -2.78565 4.75561 -0.437463 7.36562 5.01908 -7.17622 8.39699 -0.0 0.0 -0.0 6.51531 -2.85267 12.5952 1.58518 -23.8327 74.3267 0.431237 -12.0586 0.0455481 1.43053 0.0482023 -0.176345 -1.57896 26.8698 1.83329 -0.0 0.0 -0.0 -2.29214 2.37932 4.81435 5.78716 12.2036 -67.9269 1.33401 33.4563 -0.400953 -20.3484 1.14249 -2.32393 -2.71691 -2.31721 17.3187 0.0 0.0 0.0 -10.1941 -8.65542 -1.08438 -16.0947 0.321697 2.44085 15.5572 -2.31946 -2.19752 13.6901 -0.0 -0.0 -0.0 0.0 -0.0 -21.059 -54.2953 7.5371 6.60796 0.327938 0.960083 -14.102 18.2692 -2.37065 -39.084 0.0 0.0 0.0 0.0 0.0 
527.342 764.873 -1333.68 86.0175 -73.5078 85.9005 -7.321 -0.0935301 -2.81347 -7.3166 0.085616 -2.81373 -7.31177 1.01815 -2.62459 -7.32089 0.591031 -2.75233 4.20747 -0.611111 6.99839 4.44784 -7.11888 7.90817 -0.0 0.0 -0.0 6.58793 -3.29217 12.7337 1.12818 -23.8139 73.3805 0.468318 -13.0613 0.0536121 0.760539 0.0261755 -0.0936057 -1.52284 27.5979 2.4706 -0.0 0.0 -0.0 -1.68175 2.08556 3.55993 5.30774 11.4912 -66.6826 1.32932 33.3635 -0.398369 -20.0314 1.11851 -2.29115 -2.69214 -3.57246 16.5165 0.0 0.0 0.0 -10.8408 -7.8136 -0.459341 -13.147 0.31433 1.98869 10.78 -0.760431 -1.54543 14.0692 -0.0 -0.0 -0.0 0.0 -0.0 -19.1348 -53.1533 9.33881 5.5948 0.270483 0.815376 -17.407 19.2796 -2.96056 -39.5199 0.0 0.0 0.0 0.0 0.0 
532.266 764.335 -1337.72 90.0 -73.5932 90.0 -7.40145 0.0363713 -2.79465 -7.39713 0.214058 -2.78668 -7.39926 1.13425 -2.55455 -7.40765 0.716725 -2.70149 2.71054 -0.881892 7.18347 2.95811 -7.64915 7.94111 -0.0 0.0 -0.0 6.81267 -5.65401 13.1403 -0.0248436 -23.7685 72.7717 0.497716 -13.8505 0.060453 1.33102 0.0449921 -0.16404 -1.10835 27.0096 4.4868 -0.0 0.0 -0.0 -0.454975 1.8541 1.11303 4.36715 10.6932 -64.1173 1.39725 34.6874 -0.436383 -19.7256 1.09556 -2.25942 -2.65875 -4.80517 15.665 0.0 0.0 0.0 -11.8005 -6.92472 0.277974 -10.6401 0.289772 1.60486 9.54045 -0.772248 -1.37398 15.9668 -0.0 -0.0 -0.0 0.0 -0.0 -17.0302 -51.4642 10.8578 3.79461 0.174758 0.555891 -21.0126 20.7422 -3.62822 -39.6618 0.0 0.0 0.0 0.0 0.0 
536.69 763.517 -1346.23 90.0 -73.7987 90.0 -7.42687 0.0632733 -2.63453 -7.42304 0.230729 -2.62518 -7.42638 1.09698 -2.39627 -7.4337 0.704898 -2.53933 0.891541 -0.819604 7.21318 1.1196 -7.43544 7.78618 -0.0 0.0 -0.0 7.20783 -7.71711 13.9055 -0.874739 -23.6068 71.8588 0.542466 -15.0415 0.0716174 0.414749 0.0144285 -0.0510042 -0.828065 28.6998 6.71703 -0.0 0.0 -0.0 -0.651201 1.13042 1.40407 5.03247 9.75471 -64.418 1.39 34.548 -0.432264 -19.2534 1.06046 -2.21018 -2.55706 -6.66884 14.0324 0.0 0.0 0.0 -12.0808 -3.24966 1.97823 -9.18022 0.267741 1.38194 8.37375 0.0609183 -1.20833 14.9272 -0.0 -0.0 -0.0 0.0 -0.0 -15.365 -48.821 11.2418 -0.481033 -0.0195083 -0.0712419 -21.6091 20.989 -3.74042 -40.1253 0.0 0.0 0.0 0.0 0.0 
542.477 764.651 -1353.2 90.2995 -74.0511 88.885 -7.39514 -0.105407 -2.53566 -7.39156 0.0561037 -2.53722 -7.38655 0.901157 -2.37256 -7.39403 0.51527 -2.48502 1.99522 -0.939462 7.15931 2.2356 -7.68059 7.83302 -0.0 0.0 -0.0 7.96889 -10.3695 15.4346 -2.33616 -23.2938 70.9938 0.549524 -15.2281 0.07346 1.76263 0.0587612 -0.217449 -0.26975 29.0373 9.88107 -0.0 0.0 -0.0 0.0246754 0.585362 0.0218857 3.81193 10.0242 -62.3086 1.42215 35.1622 -0.450636 -19.0766 1.04742 -2.19167 -2.42708 -9.37687 11.7992 0.0 0.0 0.0 -12.6278 -1.55699 2.83798 -8.42825 0.254177 1.26734 9.72811 -1.72466 -1.40381 13.6983 -0.0 -0.0 -0.0 0.0 -0.0 -13.5246 -44.9267 12.9045 -4.16945 -0.149073 -0.622379 -20.4803 22.124 -3.58596 -40.1551 0.0 0.0 0.0 0.0 0.0 
546.123 763.105 -1358.85 90.0 -73.6129 90.0 -7.39919 -0.348743 -2.56838 -7.39554 -0.184659 -2.58535 -7.37841 0.689801 -2.49852 -7.38701 0.286687 -2.57604 1.80818 -0.746502 7.10126 2.03628 -7.28033 7.76366 -0.0 0.0 -0.0 8.6329 -12.5987 16.7863 -3.38081 -22.8613 69.152 0.576527 -15.9392 0.0807145 1.97489 0.0653845 -0.243752 -0.509038 29.4931 8.75185 -0.0 0.0 -0.0 0.419179 0.231336 -0.782075 5.13969 9.07743 -61.5689 1.36293 34.0237 -0.417017 -20.737 1.17213 -2.36392 -2.45504 -12.4063 10.4433 0.0 0.0 0.0 -12.9791 1.24977 2.28217 -8.12853 0.248352 1.22172 11.3702 -4.51923 -1.64617 12.9891 -0.0 -0.0 -0.0 0.0 -0.0 -10.3322 -39.8178 14.9088 -11.3058 -0.29793 -1.70667 -21.2709 20.7191 -3.67203 -40.2036 0.0 0.0 0.0 0.0 0.0 
